<svg width="95" height="95" viewBox="0 0 95 95" fill="none" xmlns="http://www.w3.org/2000/svg">
<path d="M85.6601 56.8401C85.6601 66.0965 82.3723 74.5794 76.8927 81.1881C73.3877 85.3997 69.0064 88.8474 64.0163 91.2444C62.6004 91.9297 61.1392 92.5242 59.6326 93.0255C55.8196 94.3053 51.7439 95 47.4988 95C43.2536 95 39.4525 94.3506 35.7517 93.1521C32.7958 92.2042 30.0095 90.903 27.4189 89.2938C26.927 88.9978 26.4495 88.6898 25.9792 88.3579C25.6139 88.1072 25.2485 87.8565 24.8952 87.582C23.1379 86.2927 21.4809 84.853 19.9743 83.2796C13.3916 76.4155 9.33984 67.1136 9.33984 56.8401C9.33984 38.6447 22.0778 23.4194 39.1206 19.6065C41.8138 19.0024 44.6217 18.6825 47.4988 18.6825C51.8944 18.6825 56.1061 19.425 60.0314 20.7931C61.8245 21.4091 63.5579 22.1635 65.2149 23.0302C66.2081 23.5555 67.168 24.1141 68.1039 24.7206C78.662 31.5012 85.6601 43.3601 85.6601 56.8401Z" fill="url(#paint0_linear_5_252)"/>
<path d="M35.7541 93.1497C32.7982 92.2018 30.0118 90.9006 27.4213 89.2914C26.9294 88.9954 26.4519 88.6874 25.9815 88.3555C25.6162 88.1048 25.2509 87.8541 24.8976 87.5796C23.1403 86.2903 21.4833 84.8506 19.9767 83.2772C23.1833 75.9141 26.2657 68.7682 27.4881 65.927C27.8081 65.1845 28.0015 64.7404 28.0349 64.6497C28.0349 64.6377 28.0349 64.6258 28.0468 64.6258C30.8212 63.3127 34.0159 63.9191 36.6996 65.3683C37.9555 66.0416 39.0967 66.8987 40.0207 67.8346C40.1353 67.9492 40.2476 68.0638 40.3526 68.1761C40.7872 68.656 41.174 69.1359 41.482 69.6253C42.0192 70.4585 42.3487 71.2918 42.4298 72.0677C42.7832 75.6395 39.7462 84.3731 35.7517 93.1497H35.7541Z" fill="black"/>
<path d="M76.8928 81.1882C73.3878 85.3998 69.0065 88.8474 64.0164 91.2445C62.6005 91.9297 61.1393 92.5242 59.6327 93.0256C58.2956 80.2976 56.333 62.9474 56.333 62.9474C59.1194 58.9531 65.2603 58.6212 69.2667 60.0943C70.7041 60.6196 71.8692 61.374 72.5091 62.2741C74.381 64.9219 75.9568 72.6265 76.8928 81.1882Z" fill="black"/>
<path d="M46.0949 54.6483C45.7749 58.232 44.4164 61.5316 42.5445 64.738C41.8712 65.8912 41.1406 67.0325 40.3526 68.1737C40.1234 68.5151 39.8847 68.8589 39.6459 69.2003C35.2742 75.4103 29.8853 81.6299 27.4213 89.2891C26.9294 88.993 26.4519 88.685 25.9816 88.3531C25.6163 88.1025 25.251 87.8518 24.8976 87.5772C25.6736 78.2754 26.5976 69.2576 27.4881 65.9246C27.672 65.2514 27.8535 64.8049 28.0349 64.6473C28.0349 64.6354 28.0349 64.6234 28.0469 64.6234C34.109 59.7839 40.0327 56.9857 43.3539 55.6391C45.0658 54.9539 46.0925 54.6459 46.0925 54.6459L46.0949 54.6483Z" fill="black"/>
<path d="M48.4466 34.6957L59.6111 34.7936L57.8443 58.1723L39.0704 71.33L43.3299 55.7561L48.4466 34.6957Z" fill="#E8B4A0"/>
<path d="M58.7181 43.2741L46.5437 42.5316L44.402 51.3511L58.7181 43.2741Z" fill="#CA807A"/>
<path d="M41.322 48.7463L58.7181 43.2741L68.9515 11.3719C27.6791 -6.82113 39.0704 46.1392 39.0704 46.1392C39.0704 46.1392 36.8141 49.0949 41.322 48.7487V48.7463Z" fill="#E8B4A0"/>
<path d="M61.5546 17.7346C68.3737 13.3105 49.9604 13.7713 63.4504 8.42322C75.1665 3.77947 73.4211 20.2391 68.5002 24.3791C62.2805 29.6126 64.31 29.3094 61.0819 31.4582L56.703 30.7514C60.3847 25.4583 59.2291 19.2459 61.5546 17.737V17.7346Z" fill="#603913"/>
<path d="M51.5601 17.3717C44.8724 18.4199 40.2595 15.5477 40.2595 15.5477C37.8217 10.6055 45.6412 -5.24539 52.8685 1.75964C58.7039 7.41809 69.1115 9.21113 67.2348 13.4848C61.9773 25.4535 61.2873 15.8485 51.5625 17.3717H51.5601Z" fill="#603913"/>
<path d="M66.0221 31.877C67.8848 29.3562 68.2685 26.4805 66.8792 25.454C65.4899 24.4274 62.8536 25.6388 60.9909 28.1597C59.1283 30.6805 58.7446 33.5562 60.1339 34.5827C61.5232 35.6092 64.1594 34.3978 66.0221 31.877Z" fill="#E8B4A0"/>
<path d="M66.0577 27.3588C65.0979 27.619 64.5034 27.9963 63.9017 28.4857C63.5889 28.7125 63.3215 29.0157 62.9992 29.2927C62.6959 29.5935 62.3832 29.9063 61.9725 30.2167C61.9486 29.7105 62.0632 29.233 62.2662 28.7842C62.481 28.3425 62.7747 27.927 63.1806 27.5999C63.5841 27.2848 64.0712 27.0365 64.5989 26.9816C65.1146 26.9195 65.6661 27.0174 66.0553 27.3564L66.0577 27.3588Z" fill="#CA807A"/>
<path d="M45.6508 24.7468L54.7142 26.6067C54.7142 26.6067 54.1817 24.1189 50.4737 23.3907C46.7682 22.6649 45.6508 24.7468 45.6508 24.7468Z" fill="#603913"/>
<path d="M37.4087 25.2148L42.1935 24.4388C42.1935 24.4388 41.1263 22.1277 39.1445 22.6076C37.2034 23.0779 37.4087 25.2124 37.4087 25.2124V25.2148Z" fill="#603913"/>
<path d="M51.658 30.0782C51.7988 29.1614 51.6054 28.1873 51.0444 27.4376C50.5215 26.7404 49.7168 26.3083 48.8334 26.4778C48.2461 26.5924 47.7399 26.9672 47.334 27.3898C47.0785 27.6549 47.482 28.0583 47.7375 27.7933C48.1004 27.4161 48.5565 27.0627 49.0984 27.0126C49.502 26.9744 49.8959 27.1177 50.2087 27.3731C50.9345 27.9676 51.2497 29.0157 51.1112 29.9278C51.0873 30.0806 51.1494 30.2334 51.3094 30.2788C51.4455 30.317 51.6365 30.231 51.6604 30.0806L51.658 30.0782Z" fill="#001848"/>
<path d="M50.0283 30.3701C50.5905 30.3391 51.0077 29.6159 50.9601 28.7548C50.9126 27.8938 50.4183 27.2209 49.8561 27.252C49.2939 27.283 48.8767 28.0062 48.9242 28.8672C48.9718 29.7283 49.466 30.4012 50.0283 30.3701Z" fill="#001848"/>
<path d="M45.6006 25.4536C41.4151 29.5458 39.9204 36.3837 39.9204 36.3837L44.2516 35.3117L45.6006 25.4559V25.4536Z" fill="#CA807A"/>
<path d="M41.5631 28.8008C41.6753 28.0893 41.5321 27.3349 40.9996 26.8144C40.5842 26.4085 39.9443 26.1913 39.3784 26.399C39.0251 26.5303 38.7481 26.7858 38.5642 27.1128C38.3804 27.4399 38.8746 27.7217 39.0561 27.4017C39.0895 27.3444 39.1253 27.2871 39.1635 27.2322C39.1898 27.1964 39.1373 27.2633 39.1659 27.2322C39.1731 27.2227 39.1826 27.2131 39.1898 27.2036C39.2137 27.1773 39.2399 27.1487 39.2662 27.1248C39.2853 27.1057 39.3068 27.089 39.3283 27.0699C39.3665 27.0341 39.3354 27.0651 39.3259 27.0699C39.3378 27.0603 39.3498 27.0508 39.3641 27.0436C39.4142 27.0102 39.4668 26.9839 39.5193 26.9553C39.5623 26.9314 39.4787 26.9672 39.5408 26.9457C39.5647 26.9386 39.5885 26.929 39.6124 26.9218C39.6411 26.9147 39.6673 26.9075 39.696 26.9027C39.7103 26.9004 39.7246 26.898 39.7389 26.8956C39.7198 26.9004 39.6888 26.9004 39.727 26.8956C39.7795 26.8932 39.8321 26.8884 39.887 26.8908C39.9109 26.8908 39.9371 26.8956 39.961 26.8956C40.0135 26.8956 39.961 26.8956 39.9491 26.8956C39.9658 26.898 39.9849 26.9004 40.0016 26.9051C40.0541 26.9147 40.109 26.929 40.1592 26.9457C40.183 26.9529 40.2069 26.9624 40.2308 26.972C40.269 26.9863 40.1878 26.9505 40.2236 26.9696C40.2404 26.9768 40.2571 26.9863 40.2738 26.9935C40.3239 27.0197 40.3741 27.0484 40.4218 27.0794C40.4433 27.0937 40.4672 27.1105 40.4887 27.1248C40.4385 27.089 40.5197 27.151 40.5316 27.1606C40.577 27.2012 40.62 27.2418 40.6606 27.2871C40.6797 27.3086 40.6988 27.3301 40.7155 27.3516C40.737 27.3755 40.7107 27.3468 40.7083 27.342C40.7226 27.3611 40.737 27.3826 40.7513 27.4017C40.7847 27.4495 40.8158 27.502 40.8444 27.5545C40.8611 27.5856 40.8778 27.6166 40.8922 27.6477C40.8969 27.6596 40.9041 27.6715 40.9089 27.6835C40.9208 27.7121 40.8969 27.6524 40.916 27.7026C41.033 28.0225 41.0593 28.3281 41.0092 28.6504C40.9853 28.8032 41.0474 28.9584 41.2073 29.0014C41.3434 29.0396 41.5344 28.956 41.5583 28.8032L41.5631 28.8008Z" fill="#001848"/>
<path d="M39.6936 28.1849C39.6936 27.4996 39.9586 26.9457 40.2857 26.9457C40.6128 26.9457 40.8779 27.502 40.8779 28.1849C40.8779 28.8701 40.6128 29.424 40.2857 29.424C39.9586 29.424 39.6936 28.8677 39.6936 28.1849Z" fill="#001848"/>
<path d="M40.1401 39.1246C40.7657 39.614 41.5679 39.7286 42.3272 39.7859C43.0984 39.8265 43.8768 39.7883 44.6384 39.6474C45.4024 39.5257 46.1522 39.3156 46.8541 39.0028C47.537 38.6853 48.2437 38.2507 48.5207 37.4963C48.3512 38.2889 47.6444 38.8428 46.9496 39.201C46.2381 39.5663 45.4645 39.7811 44.6838 39.9292C43.8982 40.0509 43.0984 40.0939 42.3081 40.0032C41.5297 39.9101 40.7012 39.6976 40.1401 39.1246Z" fill="#CA807A"/>
<path d="M69.8397 67.1017C69.8397 75.7995 67.7386 84.0078 64.0187 91.2445C62.6029 91.9297 61.1416 92.5242 59.6351 93.0256C55.822 94.3053 51.7464 95 47.5012 95C43.256 95 39.4549 94.3506 35.7541 93.1521C32.7982 92.2042 30.0119 90.903 27.4213 89.2938C26.9295 88.9978 26.4519 88.6898 25.9816 88.3579C27.5813 78.1751 27.4213 63.2458 32.9916 64.7762C34.2475 65.1177 35.4915 65.3134 36.702 65.3707C38.094 65.4615 39.4525 65.3707 40.7657 65.1415C41.3722 65.0389 41.9643 64.9028 42.5469 64.7428C51.4384 62.3792 57.7297 54.3451 58.1738 53.7626C58.1858 53.7387 58.1977 53.7291 58.1977 53.7291C62.4333 54.8704 66.4278 57.4967 69.2715 60.0991C69.3049 60.1325 69.3407 60.1564 69.3741 60.1898C69.6702 62.4603 69.8421 64.7548 69.8421 67.1065L69.8397 67.1017Z" fill="black"/>
<defs>
<linearGradient id="paint0_linear_5_252" x1="31.368" y1="22.2495" x2="63.6276" y2="91.4291" gradientUnits="userSpaceOnUse">
<stop stop-color="#FFFFC7"/>
<stop offset="1" stop-color="#FF9E54"/>
</linearGradient>
</defs>
</svg>
